<svg xmlns="http://www.w3.org/2000/svg" width="40" height="26" viewBox="0 0 40 26"><defs><style>.a{fill:#fff;}.b{fill:#cc3a3a;}.c{fill:#2856a0;}</style></defs><rect class="a" width="40" height="26"/><rect class="b" width="40" height="2" transform="translate(0 20)"/><rect class="b" width="40" height="2" transform="translate(0 24)"/><rect class="b" width="40" height="2" transform="translate(0 12.001)"/><rect class="b" width="40" height="2" transform="translate(0 16)"/><rect class="b" width="40" height="2" transform="translate(0 4.001)"/><rect class="b" width="40" height="2" transform="translate(0 8)"/><rect class="b" width="40" height="2"/><rect class="c" width="17" height="13.975"/><path class="a" d="M15.867,7.15l.457-.325h-.565L15.583,6.3l-.175.523h-.565l.457.325-.173.523.457-.323.458.323Z"/><path class="a" d="M15.867,9.912l.457-.325h-.565l-.175-.523-.175.523h-.565l.457.325-.173.523.457-.323.458.323Z"/><path class="a" d="M15.867,12.675l.457-.325h-.565l-.175-.523-.175.523h-.565l.457.325-.173.523.457-.323.458.323Z"/><path class="a" d="M15.867,4.387l.457-.325h-.565l-.175-.523-.175.523h-.565l.457.325-.173.523.457-.323.458.323Z"/><path class="a" d="M15.867,1.625l.457-.325h-.565L15.583.777l-.175.523h-.565l.457.325-.173.523.457-.323.458.323Z"/><path class="a" d="M14.5,8.531l.457-.325h-.565l-.175-.523-.175.523h-.565l.457.325-.173.523.457-.323.458.323Z"/><path class="a" d="M14.5,11.294l.457-.325h-.565l-.175-.523-.175.523h-.565l.457.325-.173.523.457-.323.458.323Z"/><path class="a" d="M14.5,5.769l.457-.325h-.565l-.175-.523-.175.523h-.565l.457.325-.173.523.457-.323.458.323Z"/><path class="a" d="M14.5,3.006l.457-.325h-.565l-.175-.523-.175.523h-.565l.457.325-.173.523.457-.323.458.323Z"/><path class="a" d="M13.033,7.15l.457-.325h-.565L12.75,6.3l-.175.523H12.01l.457.325-.175.523.458-.323.458.323Z"/><path class="a" d="M13.033,9.912l.457-.325h-.565l-.175-.523-.175.523H12.01l.457.325-.175.523.458-.323.458.323Z"/><path class="a" d="M13.033,12.675l.457-.325h-.565l-.175-.523-.175.523H12.01l.457.325-.175.523.458-.323.458.323Z"/><path class="a" d="M13.033,4.387l.457-.325h-.565l-.175-.523-.175.523H12.01l.457.325-.175.523.458-.323.458.323Z"/><path class="a" d="M13.033,1.625,13.49,1.3h-.565L12.75.777l-.175.523H12.01l.457.325-.175.523.458-.323.458.323Z"/><path class="a" d="M11.667,8.531l.457-.325h-.565l-.175-.523-.175.523h-.565l.457.325-.173.523.457-.323.458.323Z"/><path class="a" d="M11.667,11.294l.457-.325h-.565l-.175-.523-.175.523h-.565l.457.325-.173.523.457-.323.458.323Z"/><path class="a" d="M11.667,5.769l.457-.325h-.565l-.175-.523-.175.523h-.565l.457.325-.173.523.457-.323.458.323Z"/><path class="a" d="M11.667,3.006l.457-.325h-.565l-.175-.523-.175.523h-.565l.457.325-.173.523.457-.323.458.323Z"/><path class="a" d="M10.2,7.15l.457-.325h-.565L9.917,6.3l-.175.523H9.177l.457.325-.173.523.457-.323.457.323Z"/><path class="a" d="M10.2,9.912l.457-.325h-.565l-.175-.523-.175.523H9.177l.457.325-.173.523.457-.323.457.323Z"/><path class="a" d="M10.2,12.675l.457-.325h-.565l-.175-.523-.175.523H9.177l.457.325L9.46,13.2l.457-.323.457.323Z"/><path class="a" d="M10.2,4.387l.457-.325h-.565l-.175-.523-.175.523H9.177l.457.325-.173.523.457-.323.457.323Z"/><path class="a" d="M10.2,1.625l.457-.325h-.565L9.917.777,9.742,1.3H9.177l.457.325-.173.523.457-.323.457.323Z"/><path class="a" d="M8.833,8.531l.457-.325H8.725L8.55,7.683l-.175.523H7.81l.457.325-.175.523.458-.323.458.323Z"/><path class="a" d="M8.833,11.294l.457-.325H8.725l-.175-.523-.175.523H7.81l.457.325-.175.523.458-.323.458.323Z"/><path class="a" d="M8.833,5.769l.457-.325H8.725L8.55,4.92l-.175.523H7.81l.457.325-.175.523.458-.323.458.323Z"/><path class="a" d="M8.833,3.006l.457-.325H8.725L8.55,2.158l-.175.523H7.81l.457.325-.175.523.458-.323.458.323Z"/><path class="a" d="M7.367,7.15l.457-.325H7.258L7.083,6.3l-.175.523H6.343L6.8,7.15l-.173.523.457-.323.457.323Z"/><path class="a" d="M7.367,9.912l.457-.325H7.258l-.175-.523-.175.523H6.343l.457.325-.173.523.457-.323.457.323Z"/><path class="a" d="M7.367,12.675l.457-.325H7.258l-.175-.523-.175.523H6.343l.457.325-.173.523.457-.323.457.323Z"/><path class="a" d="M7.367,4.387l.457-.325H7.258l-.175-.523-.175.523H6.343l.457.325-.173.523.457-.323.457.323Z"/><path class="a" d="M7.367,1.625,7.823,1.3H7.258L7.083.777,6.908,1.3H6.343l.457.325-.173.523.457-.323.457.323Z"/><path class="a" d="M6,8.531l.457-.325H5.892l-.175-.523-.175.523H4.977l.457.325-.175.523.458-.323.458.323Z"/><path class="a" d="M6,11.294l.457-.325H5.892l-.175-.523-.175.523H4.977l.457.325-.175.523.458-.323.458.323Z"/><path class="a" d="M6,5.769l.457-.325H5.892L5.717,4.92l-.175.523H4.977l.457.325-.175.523.458-.323.458.323Z"/><path class="a" d="M6,3.006l.457-.325H5.892l-.175-.523-.175.523H4.977l.457.325-.175.523.458-.323.458.323Z"/><path class="a" d="M4.533,7.15l.457-.325H4.425L4.25,6.3l-.175.523H3.51l.457.325-.175.523L4.25,7.35l.458.323Z"/><path class="a" d="M4.533,9.912l.457-.325H4.425L4.25,9.064l-.175.523H3.51l.457.325-.175.523.458-.323.458.323Z"/><path class="a" d="M4.533,12.675l.457-.325H4.425l-.175-.523-.175.523H3.51l.457.325-.175.523.458-.323.458.323Z"/><path class="a" d="M4.533,4.387l.457-.325H4.425L4.25,3.539l-.175.523H3.51l.457.325-.175.523.458-.323.458.323Z"/><path class="a" d="M4.533,1.625,4.99,1.3H4.425L4.25.777,4.075,1.3H3.51l.457.325-.175.523.458-.323.458.323Z"/><path class="a" d="M3.167,8.531l.457-.325H3.058l-.175-.523-.175.523H2.143l.457.325-.175.523.458-.323.458.323Z"/><path class="a" d="M3.167,11.294l.457-.325H3.058l-.175-.523-.175.523H2.143l.457.325-.175.523.458-.323.458.323Z"/><path class="a" d="M3.167,5.769l.457-.325H3.058L2.883,4.92l-.175.523H2.143l.457.325-.175.523.458-.323.458.323Z"/><path class="a" d="M3.167,3.006l.457-.325H3.058l-.175-.523-.175.523H2.143l.457.325-.175.523.458-.323.458.323Z"/><path class="a" d="M1.7,7.15l.457-.325H1.592L1.417,6.3l-.175.523H.677l.457.325-.175.523.458-.323.457.323Z"/><path class="a" d="M1.7,9.912l.457-.325H1.592l-.175-.523-.175.523H.677l.457.325-.175.523.458-.323.457.323Z"/><path class="a" d="M1.7,12.675l.457-.325H1.592l-.175-.523-.175.523H.677l.457.325L.958,13.2l.458-.323.457.323Z"/><path class="a" d="M1.7,4.387l.457-.325H1.592l-.175-.523-.175.523H.677l.457.325-.175.523.458-.323.457.323Z"/><path class="a" d="M1.7,1.625,2.157,1.3H1.592L1.417.777,1.242,1.3H.677l.457.325-.175.523.458-.323.457.323Z"/></svg>