<svg xmlns="http://www.w3.org/2000/svg" xmlns:xlink="http://www.w3.org/1999/xlink" width="22" height="22" viewBox="0 0 22 22"><defs><style>.a{fill:none;}.b{fill:#616161;}.c{clip-path:url(#a);}</style><clipPath id="a"><rect class="a" width="22" height="22" transform="translate(0 0.032)"/></clipPath></defs><g transform="translate(-103 -550)"><g class="c" transform="translate(103 549.968)"><path d="M21.906.625a.934.934,0,0,0-.921-.609H1.014A.933.933,0,0,0,.094.625.9.9,0,0,0,.312,1.719L8,9.422v7.594a.963.963,0,0,0,.3.7l3.994,4a.928.928,0,0,0,.7.3,1.085,1.085,0,0,0,.39-.078A.934.934,0,0,0,14,21.016V9.422l7.692-7.7A.9.9,0,0,0,21.906.625Z"/></g><path class="b" d="M115.295,571.687l-3.994-4a.963.963,0,0,1-.3-.7v-7.593l-7.692-7.7a.9.9,0,0,1-.219-1.094.924.924,0,0,1,.724-.594h20.366a.922.922,0,0,1,.723.594,1.127,1.127,0,0,1,.094.412v.036a.889.889,0,0,1-.312.645l-7.691,7.7v11.594a.934.934,0,0,1-.609.922,1.077,1.077,0,0,1-.39.078A.926.926,0,0,1,115.295,571.687Z"/></g></svg>