<svg xmlns="http://www.w3.org/2000/svg" width="40" height="26" viewBox="0 0 40 26"><defs><style>.a{fill:#cc3a3a;}.b{fill:#fff;}.c{fill:none;stroke:red;stroke-linecap:round;stroke-width:0.082px;}.d{fill:red;}</style></defs><rect class="a" width="40" height="26" transform="translate(0 0)"/><path class="b" d="M21.7,5.111A4.43,4.43,0,0,0,18.26,6.339c-1.9,1.554-.833,4.387-.667,4.75a3.928,3.928,0,0,0,1.96,1.8s.362.185.167-.162a1.55,1.55,0,0,1,.223-2.184c1.007-.819,1.7-.773,1.9-2.138s-.433-1.607-.5-2.2a.9.9,0,0,1,.392-.928C21.987,5.141,21.7,5.111,21.7,5.111Z"/><path class="c" d="M19.333,8.549a2.721,2.721,0,0,0-.778,2.054,3,3,0,0,0,1.112,2.234"/><path class="d" d="M19.945,8.1l.262-.185h-.323l-.1-.3-.1.3H19.36l.262.185-.1.3.262-.185.262.185Z"/><path class="b" d="M12.833,8.981a4.146,4.146,0,0,0,.133,3.575c.928,2.249,4.027,2.137,4.425,2.091a4.023,4.023,0,0,0,2.363-1.261s.292-.278-.108-.206a1.634,1.634,0,0,1-2.062-.882c-.488-1.188-.228-1.818-1.5-2.423s-1.7-.1-2.3-.218A.922.922,0,0,1,13,9.007C12.942,8.731,12.833,8.981,12.833,8.981Z"/><path class="c" d="M15.452,12.244A2.81,2.81,0,0,0,17.215,13.6a3.151,3.151,0,0,0,2.532-.346"/><path class="d" d="M15.205,11.537l-.1-.3-.1.3h-.323l.262.185-.1.3h0l.262-.185.262.185-.1-.3.262-.185Z"/><path class="b" d="M13.865,18.406a4.4,4.4,0,0,0,3.527.975c2.478-.172,3.333-3.075,3.407-3.456a3.785,3.785,0,0,0-.5-2.58s-.182-.358-.235.036a1.587,1.587,0,0,1-1.5,1.638c-1.312.085-1.845-.349-2.833.642s-.618,1.549-.922,2.067a.932.932,0,0,1-.877.527C13.645,18.219,13.865,18.406,13.865,18.406Z"/><path class="c" d="M17.857,16.984a2.833,2.833,0,0,0,1.868-1.215,2.955,2.955,0,0,0,.442-2.455"/><path class="d" d="M17.092,16.994h-.323l.262.185-.1.3.262-.185.262.185h0l-.1-.3.262-.185h-.323l-.1-.3Z"/><path class="b" d="M23.378,20.36a4.25,4.25,0,0,0,2.045-2.967c.6-2.35-1.97-4.036-2.32-4.225a4.067,4.067,0,0,0-2.667-.335s-.405.059-.037.229a1.574,1.574,0,0,1,1.135,1.895c-.322,1.245-.912,1.6-.247,2.819s1.32,1.051,1.732,1.493a.888.888,0,0,1,.242.975C23.14,20.5,23.378,20.36,23.378,20.36Z"/><path class="c" d="M23.223,16.218a2.7,2.7,0,0,0-.608-2.113,3.137,3.137,0,0,0-2.257-1.17"/><path class="d" d="M23,16.931l-.1.3.262-.185.262.185-.1-.3.26-.184v0l-.322,0-.1-.3-.1.3-.323,0Z"/><path class="b" d="M28.222,12.142A4.234,4.234,0,0,0,25.96,9.329c-2.1-1.284-4.547.579-4.833.845a3.872,3.872,0,0,0-1.152,2.374s-.068.393.212.106a1.643,1.643,0,0,1,2.2-.466c1.112.682,1.282,1.341,2.667,1.1s1.433-.9,2-1.138a.949.949,0,0,1,1.027.076C28.292,12.418,28.222,12.142,28.222,12.142Z"/><path class="c" d="M24.135,11a2.881,2.881,0,0,0-2.245-.086,3.043,3.043,0,0,0-1.833,1.731"/><path class="d" d="M24.762,11.435l.262.185-.1-.3.262-.185h-.323l-.1-.3h0l-.1.3h-.323l.262.185-.1.3Z"/></svg>