<svg xmlns="http://www.w3.org/2000/svg" width="26" height="26" viewBox="0 0 26 26"><defs><style>.a{opacity:0.6;}</style></defs><g class="a" transform="translate(0 0)"><path d="M25.422,22.594l-5.359-5.359A10.7,10.7,0,0,0,22,11a10.805,10.805,0,0,0-.868-4.274A10.773,10.773,0,0,0,15.274.867a10.963,10.963,0,0,0-8.547,0,10.772,10.772,0,0,0-5.86,5.86,10.963,10.963,0,0,0,0,8.547,10.775,10.775,0,0,0,5.86,5.859A10.81,10.81,0,0,0,11,22a10.7,10.7,0,0,0,6.235-1.938l5.359,5.344A1.856,1.856,0,0,0,24,26a2,2,0,0,0,1.422-3.406Zm-9.477-6.649A6.741,6.741,0,0,1,11,18a6.742,6.742,0,0,1-4.945-2.055A6.741,6.741,0,0,1,4,11,6.742,6.742,0,0,1,6.055,6.055,6.741,6.741,0,0,1,11,4a6.743,6.743,0,0,1,4.945,2.055A6.741,6.741,0,0,1,18,11,6.741,6.741,0,0,1,15.945,15.945Z"/></g></svg>